PathFileType	4	(X/Y/Z)	C:/Users/beibeiliu/ov580/test_trc/User1\sequence.24_training_dense_right.trc
DataRate	CameraRate	NumFrames	NumMarkers	Units	OrigDataRate	OrigDataStartFrame	OrigNumFrames
120	120	22	19	mm	120	51	177
Frame#	Time	ThumbCMC			ThumbMCP			ThumbIP			ThumbTip			IndexMCP			IndexPIP			IndexTip			MiddleMCP			MiddlePIP			MiddleTip			RingMCP			RingPIP			RingTip			PinkyMCP			PinkyPIP			PinkyTip			BackHand1			BackHand2			BackHand3	
		X0	Y0	Z0	X1	Y1	Z1	X2	Y2	Z2	X3	Y3	Z3	X4	Y4	Z4	X5	Y5	Z5	X6	Y6	Z6	X7	Y7	Z7	X8	Y8	Z8	X9	Y9	Z9	X10	Y10	Z10	X11	Y11	Z11	X12	Y12	Z12	X13	Y13	Z13	X14	Y14	Z14	X15	Y15	Z15	X16	Y16	Z16	X17	Y17	Z17	X18	Y18	Z18	
50	0.416667	171.599	35.5271	56.2817	160.105	40.6436	19.4979	151.101	25.4475	-2.99404	134.54	3.19178	-17.6902	184.843	-8.28656	-16.3134	182.141	-15.6398	-38.0489	179.244	-28.5022	-57.878	155.119	-17.3807	-21.8491	140.616	-9.6162	-40.9766	115.189	-3.72276	-61.2172	126.197	-18.3058	-1.97681	108.744	9.17748	3.46215	115.036	20.1381	38.101	115.635	-24.7267	16.1108	106.968	2.28997	22.4763	118.144	11.9605	50.1293	161.931	-33.518	47.1251	163.691	-26.5383	83.0668	182.973	-5.11043	62.8672	
51	0.425	170.921	36.3909	59.5287	160.765	35.2561	20.5239	150.561	22.0945	-1.09824	134.939	2.00341	-16.2876	182.989	-11.2184	-12.0085	178.78	-17.7587	-34.1785	179.758	-29.3752	-58.444	156.068	-21.0053	-16.4782	140.3	-12.4012	-39.5313	117.771	-0.898277	-63.8121	125.971	-21.2695	-0.476862	110.026	12.0114	4.6616	115.495	19.5389	37.6835	114.315	-24.9932	15.5908	102.518	-1.57176	23.2968	122.119	11.9261	51.0678	160.449	-35.7041	48.5927	159.417	-29.758	86.1621	185.085	-6.33066	62.7292	
52	0.433333	172.415	33.4981	59.0056	160.369	36.4359	20.5813	150.772	18.6843	-1.25313	135.199	3.47694	-17.4189	181.694	-13.7429	-15.3472	181.782	-19.4188	-37.6956	177.089	-36.045	-59.5295	153.635	-23.2282	-18.8183	140.934	-12.307	-39.8379	115.759	-4.53817	-61.2003	127.057	-18.5092	-2.3418	109.827	8.74689	4.36235	116.391	19.1064	37.4484	115.619	-27.0623	16.2871	105.591	-0.0794891	22.7745	121.69	11.4883	48.4732	158.616	-38.4521	51.2758	161.128	-26.1517	88.3207	182.231	-8.65575	62.9034	
53	0.441667	172.403	32.4014	59.917	161.902	37.0997	20.8805	151.866	21.6338	-1.0562	135.073	-0.616073	-17.7995	183.07	-13.5525	-11.7849	179.076	-21.1973	-32.7169	175.875	-34.7359	-55.0558	157.119	-22.1427	-17.4069	138.14	-14.6698	-42.5145	117.204	-6.40038	-60.6523	125.013	-20.0634	-1.99983	108.696	6.85784	4.43215	120.095	20.8646	36.0314	114.136	-29.3835	17.6946	102.129	-2.61305	23.6554	121.679	12.1272	46.6516	159.278	-38.4613	53.9182	161.644	-28.379	87.5215	186.222	-8.53742	62.5932	
54	0.45	171.489	29.6422	60.7593	162.016	34.6526	24.5786	153.556	17.8549	-1.92778	137.446	3.42366	-15.6385	183.4	-16.7088	-14.8765	182.637	-23.4909	-37.3638	179.542	-35.3077	-55.3682	155.989	-22.9773	-18.8872	139.293	-14.0994	-42.919	122.319	-3.93852	-61.3262	128.154	-17.4181	-2.06549	108.847	7.00036	5.16992	117.091	20.5576	34.2708	113.614	-25.6316	15.5749	106.214	0.555991	24.5926	123.993	10.8421	52.4508	160.272	-36.8368	50.1816	160.02	-29.4424	88.0327	186.837	-10.4953	60.4159	
55	0.458333	173.031	28.2039	59.6434	164.933	31.0505	22.3276	155.388	19.8084	-1.2189	138.58	-0.86732	-14.8842	186.87	-14.9094	-14.297	182.882	-24.0311	-35.3613	181.433	-35.7437	-54.4547	157.903	-23.5439	-18.173	143.168	-14.3518	-41.0626	120.961	-3.89986	-64.0313	129.082	-21.0141	-0.255187	114.844	12.4993	4.88001	117.021	20.3451	37.1934	117.276	-27.0591	15.9382	105.93	1.10827	24.9284	126.248	12.4819	47.7563	161.038	-39.2374	50.2167	160.516	-28.5938	87.7466	188.555	-8.53141	60.5059	
56	0.466667	176.163	27.6177	58.9202	167.21	32.0116	20.8247	159.177	16.343	-2.17913	142.344	-0.50707	-16.9247	187.903	-17.514	-14.2121	187.224	-21.8002	-33.8088	186.215	-36.9287	-56.7067	161.221	-24.5437	-18.0389	145.785	-16.5931	-39.1922	126.58	-4.00759	-62.7881	134.985	-19.3751	-1.55862	113.428	8.90883	4.54763	118.086	19.1483	34.8518	120.864	-25.7113	14.0712	107.992	0.286324	23.1133	124.811	9.25043	50.3924	160.806	-39.1061	52.165	162.819	-29.9904	86.6956	187.46	-11.81	60.9898	
57	0.475	177.752	28.7192	58.9891	170.913	30.8507	18.4044	161.928	15.6041	-7.65999	145.994	0.669353	-16.3776	193.481	-16.1808	-12.8153	190.399	-25.3826	-34.4815	188.109	-39.2078	-57.1665	162.464	-26.0647	-18.0909	148.961	-15.8108	-43.4583	129.011	-5.71393	-62.7874	135.146	-22.2463	-1.54775	117.28	7.31755	1.74066	124.238	21.7043	32.7919	118.807	-26.9549	12.7808	114.472	-0.230761	20.1729	130.913	9.54297	50.0472	165.907	-37.7176	51.3304	163.785	-31.4396	83.7583	188.816	-12.6291	61.4037	
58	0.483333	179.991	25.7917	56.6629	171.838	32.6606	19.8159	165.13	19.4779	-6.44761	147.253	-1.95511	-18.0285	194.193	-18.3119	-12.4677	195.959	-25.23	-36.8634	193.778	-38.2571	-56.7808	166.67	-27.1643	-17.5408	149.24	-18.5035	-44.5078	132.965	-3.64932	-67.598	140.842	-20.6145	-4.37504	118.751	6.46342	2.86604	124.225	19.6634	30.3213	122.02	-29.3394	12.1843	114.589	-1.25492	19.5588	129.894	10.3321	47.002	163.763	-39.7692	51.8286	164.038	-31.0603	87.9983	190.579	-12.7806	63.0229	
59	0.491667	179.946	24.3932	57.376	175.223	32.4059	18.066	165.909	12.1297	-4.21079	150.214	-1.99281	-18.7017	199.1	-17.5849	-13.4139	196.162	-27.001	-34.6845	194.443	-42.9895	-55.9	167.378	-27.4682	-21.3174	153.734	-19.3695	-45.3092	136.574	-8.2074	-65.8502	139.103	-23.4375	-5.4244	120.014	5.35602	-0.0867447	123.528	17.1998	29.7321	124.142	-32.5698	11.7229	114.146	-3.83581	17.0155	130.958	8.14075	41.2658	166.63	-41.1643	46.7253	165.526	-32.5217	86.7539	191.5	-15.0959	63.6295	
60	0.5	181.92	26.9327	58.3707	174.851	27.239	21.0818	168.675	13.5097	-5.45998	151.691	-4.80956	-22.1708	200.007	-22.9869	-14.0598	200.883	-29.5806	-37.7483	201.466	-43.5815	-58.044	173.304	-29.3131	-18.4491	160.472	-19.3243	-43.5336	135.856	-10.0586	-69.5739	139.281	-23.8264	-7.04826	123.203	2.65231	-1.19984	125.82	15.7668	29.7725	125.162	-34.4786	11.8804	121.107	-3.6584	16.3048	129.387	7.47178	41.9955	167.51	-44.4506	49.093	166.375	-34.9458	85.6178	193.729	-17.3774	60.7391	
61	0.508333	182.506	23.7929	55.8543	175.305	30.9069	18.7169	169.282	12.8497	-7.93333	154.092	-6.98474	-17.8802	203.076	-20.0957	-9.84741	200.747	-32.1155	-34.9139	203.073	-41.1374	-55.0281	172.474	-32.3887	-16.336	162.005	-21.2463	-45.16	143.146	-11.3671	-67.952	145.838	-25.4603	-6.16966	126.563	-0.121408	-4.71216	125.706	14.2654	26.6963	129.729	-33.2574	9.0655	118.987	-9.06769	14.1236	135.922	6.34657	43.1268	168.782	-44.3628	48.2658	167.588	-35.3725	84.7423	196.188	-13.8922	61.8022	
62	0.516667	182.203	25.8621	56.3592	174.182	28.2281	18.8772	169.943	8.86897	-8.76998	155.579	-9.0391	-21.3109	202.451	-20.5647	-9.7106	201.757	-29.0904	-31.7671	207.483	-40.7471	-55.8749	174.244	-32.5378	-22.0028	163.967	-23.1854	-44.1046	141.591	-15.9527	-69.4295	146.239	-30.5918	-4.77948	127.408	1.04323	-3.98381	127.374	13.1717	29.4614	130.441	-39.6286	10.7627	121.597	-9.7978	14.1199	136.7	3.77815	40.0747	172.237	-42.921	51.0336	168.422	-35.8895	87.3466	194.616	-13.9657	60.3898	
63	0.525	180.932	26.6188	54.02	173.131	27.19	17.4547	169.784	11.207	-8.86399	155.272	-12.231	-23.3271	203.937	-19.1697	-10.9085	209.785	-24.442	-35.6371	208.693	-41.4805	-56.511	176.64	-32.0108	-19.161	165.365	-25.2099	-41.9608	142.319	-19.634	-70.7314	148.753	-32.7053	-4.64584	126.2	-6.33958	-4.17661	125.554	8.30501	24.711	134.006	-41.7468	10.5062	124.104	-15.4066	10.8146	132.385	3.14006	37.7253	176.751	-44.6106	48.2546	171.156	-33.5268	86.7605	196.751	-10.0232	59.7063	
64	0.533333	176.08	28.7498	58.7347	172.304	28.6618	15.2962	167.579	14.6299	-8.16491	156.962	-11.8427	-21.4552	208.832	-12.1181	-10.3798	211.648	-21.548	-37.4006	212.551	-37.1431	-56.7951	181.98	-27.4308	-20.4548	165.584	-25.4958	-43.208	148.581	-18.4212	-68.8456	152.313	-32.3647	-5.9023	124.717	-6.49524	-3.16396	125.845	7.54597	22.383	138.845	-41.5788	9.22381	123.815	-16.0253	12.4585	130.268	1.24951	38.3533	178.9	-43.8605	47.6946	174.584	-34.0435	85.7988	196.131	-8.74787	62.0438	
65	0.541667	175.455	29.9015	57.1349	168.611	27.99	19.3797	167.935	13.9983	-6.57859	157.636	-9.2792	-19.8041	208.39	-10.0193	-10.0175	209.067	-21.851	-35.0712	213.436	-32.6193	-53.7515	181.034	-30.4381	-22.0962	168.311	-25.3939	-42.4019	151.306	-19.273	-66.9422	154.746	-30.168	-7.60927	129.886	-8.20619	-5.46225	128.301	7.08101	24.7716	140.908	-41.7503	8.67715	123.871	-17.962	15.5865	133.687	-1.9568	37.6176	181.837	-41.6157	50.6704	176.509	-30.5397	86.4172	198.892	-9.49143	60.915	
66	0.55	172.294	31.0469	57.2002	164.449	29.3386	20.3736	166.931	12.1452	-8.06067	158.51	-11.6469	-17.9412	207.224	-8.49861	-12.6918	211.541	-13.2939	-32.6846	218.506	-28.1981	-56.7756	185.179	-27.5301	-18.3453	170.197	-25.3929	-42.9714	148.886	-23.6877	-69.229	154.177	-33.1572	-8.1549	127.204	-12.0495	-2.63827	126.814	1.79663	24.5824	144.617	-45.8714	9.51887	126.951	-24.9518	12.5841	131.956	-6.49337	41.7637	186.024	-42.9502	48.3371	178.808	-32.0982	84.302	196.82	-4.40718	63.0794	
67	0.558333	167.941	32.9756	57.7641	160.921	29.3212	19.8748	164.183	9.5302	-4.53111	157.479	-11.2132	-19.2084	206.386	-3.65631	-12.4306	210.948	-8.73064	-35.2862	217.516	-24.0293	-56.0507	185.278	-22.2206	-22.5683	170.788	-25.2817	-42.7299	150.468	-26.1118	-66.5477	160.165	-36.4468	-4.96615	130.106	-18.2537	-4.54803	125.99	-4.16471	25.6048	147.985	-50.1835	11.3031	128.75	-24.6061	15.7033	133.199	-9.69558	40.8378	189.151	-37.1684	50.617	182.19	-31.5525	87.5446	198.497	1.3989	60.1447	
68	0.566667	162.129	32.2702	58.1944	154.887	29.5722	22.5226	158.431	15.1563	-7.94487	156.4	-10.3982	-20.9648	203.301	2.56076	-10.6858	207.975	-5.48574	-32.5702	216.27	-13.4832	-56.1648	185.242	-22.8996	-23.0003	170.157	-23.7497	-42.5791	148.855	-26.143	-66.96	160.571	-36.5938	-5.85115	131.029	-20.4406	-3.737	126.157	-5.43321	28.7405	152.638	-49.0688	10.0847	132.811	-31.5005	13.1619	138.548	-11.3163	41.5911	192.82	-31.5676	49.8891	186.251	-28.3736	83.3238	196.349	1.23244	60.2568	
69	0.575	159.704	27.6984	57.1653	150.154	28.4677	23.1957	156.725	13.4868	-6.82686	154.291	-8.27858	-19.5789	201.533	10.935	-15.9708	205.655	4.08925	-35.6608	213.893	-5.09322	-56.9152	186.277	-15.6334	-22.2213	170.024	-17.6071	-44.5458	146.068	-27.3734	-66.3909	164.328	-34.215	-5.86752	132.532	-22.7632	-4.03497	125.081	-14.2797	29.8978	156.552	-46.5128	7.87824	132.059	-36.6699	14.8377	137.106	-17.0908	40.6776	196.176	-30.4815	46.46	188.377	-21.0251	84.7357	192.184	9.75396	62.4997	
70	0.583333	152.32	27.7356	59.3023	144.553	26.4463	21.7936	149.597	16.5546	-7.9471	153.449	-8.6459	-22.2	196.83	13.6991	-17.3705	201.292	11.3625	-37.6713	211.446	3.9538	-62.8246	185.195	-13.7861	-22.0605	169.137	-12.9141	-44.3478	146.007	-25.3222	-65.1326	165.074	-29.3404	-6.99521	131.584	-25.0787	-4.60662	123.936	-13.4458	27.4365	159.894	-45.9146	5.91344	134.354	-34.9039	16.4166	139.089	-16.1791	37.9221	196.56	-25.1469	43.5094	190.574	-19.4653	78.9181	192.563	12.7212	59.6566	
71	0.591667	146.796	27.822	57.9843	135.732	28.7353	21.652	146.773	13.3682	-5.48462	152.959	-9.53789	-23.5247	190.435	22.9004	-15.9148	196.352	15.364	-39.574	203.531	12.7332	-60.5315	180.867	-4.01688	-26.2911	166.636	-9.59424	-46.3252	140.361	-21.2627	-69.2889	164.178	-27.4135	-8.89408	132.884	-31.314	-2.67982	124.126	-18.2561	30.6287	165.773	-45.6193	7.50792	138.814	-36.6657	11.9484	139.212	-20.1357	37.2739	198.783	-18.0862	45.4177	189.679	-13.7479	82.7007	184.19	17.6164	61.4495	
